<?xml version="1.0" standalone="no"?>
<!DOCTYPE svg PUBLIC "-//W3C//DTD SVG 20010904//EN" "http://www.w3.org/TR/2001/REC-SVG-20010904/DTD/svg10.dtd">
<svg xmlns="http://www.w3.org/2000/svg" version="1.2" width="200.000000pt" height="200.000000pt" viewBox="0 0 200.000000pt 200.000000pt" preserveAspectRatio="xMidYMid meet" baseProfile="tiny-ps">

<g transform="translate(0.000000,200.000000) scale(0.100000,-0.100000)" fill="#000000" stroke="none">
<path d="M0 1000 l0 -1000 1000 0 1000 0 0 1000 0 1000 -1000 0 -1000 0 0 -1000z m647 858 c-3 -7 -5 -2 -5 12 0 14 2 19 5 13 2 -7 2 -19 0 -25z m13 -68 c37 -55 174 -193 224 -225 14 -10 26 -25 26 -34 0 -11 3 -12 8 -4 5 8 13 9 22 3 11 -7 12 -10 2 -10 -30 0 -162 -130 -162 -160 0 -18 56 -17 93 2 37 19 179 41 201 31 13 -5 132 -151 159 -194 22 -33 13 -36 -41 -12 -20 9 -43 15 -51 14 -7 -1 -10 2 -6 9 7 12 -31 60 -48 60 -5 0 2 -12 17 -27 14 -14 24 -28 21 -31 -2 -3 -17 7 -31 21 -20 21 -24 30 -15 40 8 11 5 19 -16 38 -14 13 -24 20 -21 14 4 -6 -17 -11 -52 -13 -32 -1 -75 -8 -96 -15 -49 -16 -128 -8 -130 13 -3 34 -5 34 -18 0 -37 -97 -56 -155 -56 -174 0 -13 -3 -17 -10 -10 -19 19 -142 349 -165 444 l-24 95 43 70 c24 39 52 86 61 105 13 24 20 30 23 20 3 -8 22 -40 42 -70z m781 18 c12 -23 36 -65 55 -92 l33 -51 -19 -70 c-11 -38 -20 -78 -20 -88 0 -27 -142 -387 -150 -382 -4 3 -10 22 -14 44 -15 97 -142 294 -219 341 -17 11 -24 20 -18 24 6 4 11 3 11 -2 0 -5 19 9 43 32 23 22 69 64 102 92 33 29 83 84 110 123 28 39 53 71 57 71 4 0 17 -19 29 -42z m-393 -315 c-15 -2 -42 -2 -60 0 -18 2 -6 4 27 4 33 0 48 -2 33 -4z m-213 -122 c-3 -6 -11 -11 -16 -11 -5 0 -4 6 3 14 14 16 24 13 13 -3z m375 -34 c0 -4 4 -6 9 -3 5 3 11 -2 13 -12 8 -30 12 -37 27 -54 9 -9 29 -55 46 -102 16 -47 32 -86 35 -86 3 0 25 46 48 103 50 120 64 146 57 102 -23 -147 -68 -372 -79 -398 l-13 -32 -7 25 c-3 14 -13 72 -21 130 -8 57 -19 108 -24 113 -6 6 -8 3 -5 -9 2 -10 13 -75 23 -144 17 -109 35 -213 70 -405 7 -38 5 -59 -6 -87 -8 -21 -19 -38 -25 -38 -5 0 -8 -6 -6 -12 2 -7 -14 -40 -34 -73 -21 -33 -38 -54 -38 -47 0 6 -4 12 -10 12 -5 0 -7 -7 -4 -15 4 -8 1 -15 -5 -15 -6 0 -11 10 -11 21 0 16 5 20 19 16 14 -3 24 6 40 34 12 22 17 39 12 39 -6 0 -11 -4 -11 -10 0 -5 -11 -10 -23 -10 -15 0 -28 -8 -34 -22 -8 -19 -10 -20 -16 -4 -4 10 -3 15 3 11 6 -3 10 1 10 9 0 23 -17 20 -31 -5 -10 -20 -12 -20 -27 -5 -14 13 -14 18 -3 28 11 11 13 10 8 -4 -7 -21 8 -24 16 -4 3 8 -3 22 -13 31 -16 15 -22 15 -35 5 -18 -15 -20 0 -2 19 10 11 9 13 -6 8 -10 -4 -15 -3 -12 2 9 16 -17 62 -33 56 -8 -3 -16 3 -19 15 -3 11 -9 18 -13 15 -4 -3 -10 2 -14 10 -3 8 0 14 7 12 8 -1 12 14 13 43 2 44 2 44 -6 10 -7 -31 -7 -29 -4 13 l3 48 -19 -23 -19 -23 -1 28 c0 15 5 27 11 27 7 0 9 11 5 30 -3 19 -2 29 4 25 6 -3 10 4 11 17 0 22 1 22 9 3 12 -28 12 -37 0 -30 -13 8 -13 -8 0 -21 5 -5 14 -48 19 -94 l10 -85 -4 85 c-5 94 -9 120 -20 165 l-8 30 -14 -30 -13 -30 2 30 c2 28 -41 103 -65 114 -5 2 4 12 20 22 l28 19 -33 0 c-18 0 -31 4 -28 9 3 5 -4 11 -17 15 -12 3 -34 17 -49 31 -33 31 -34 31 -49 3 -6 -13 -8 -20 -4 -16 12 11 32 -15 27 -34 -2 -10 1 -18 7 -18 6 0 11 -4 11 -10 0 -5 -6 -10 -14 -10 -8 0 -16 -5 -18 -11 -2 -6 -9 0 -16 15 -6 14 -7 26 -3 26 5 0 12 -8 14 -17 3 -10 5 -4 6 14 1 25 -2 31 -14 27 -25 -10 -21 88 5 111 23 20 40 17 148 -26 86 -34 103 -37 48 -7 -54 28 -143 58 -175 58 l-26 1 27 23 c28 25 64 27 148 5 19 -5 49 -8 65 -8 28 1 27 2 -10 12 -22 5 -46 16 -53 24 -7 7 -17 13 -22 13 -5 0 -17 3 -27 6 -15 5 -15 4 -3 -5 12 -9 10 -11 -12 -11 -20 0 -26 4 -22 14 4 11 0 13 -15 9 -12 -3 -21 -9 -21 -14 0 -5 -7 -9 -15 -9 -8 0 -20 -9 -27 -19 -6 -10 -17 -17 -23 -14 -9 3 -14 -23 -19 -87 -8 -95 1 -145 34 -188 17 -21 17 -28 -26 -189 -53 -205 -53 -203 -64 -183 -28 52 -105 327 -141 505 -27 134 -55 315 -49 315 7 0 22 -31 78 -162 12 -27 23 -48 25 -48 2 0 21 45 42 100 l38 101 46 -7 c58 -8 65 -15 66 -63 l0 -39 42 39 c24 21 48 39 55 39 7 0 50 -15 95 -34 44 -18 105 -39 135 -46 29 -7 62 -17 73 -23 20 -10 20 -9 0 14 -12 13 -36 48 -55 76 -19 29 -38 53 -42 53 -10 0 -10 52 -1 76 6 16 7 16 20 -2 7 -10 13 -22 13 -27z m-140 -47 c0 -5 -2 -10 -4 -10 -3 0 -8 5 -11 10 -3 6 -1 10 4 10 6 0 11 -4 11 -10z m-33 -582 c-3 -8 -6 -5 -6 6 -1 11 2 17 5 13 3 -3 4 -12 1 -19z m20 -120 c-3 -7 -5 -2 -5 12 0 14 2 19 5 13 2 -7 2 -19 0 -25z m73 -133 c0 -5 -5 -3 -10 5 -5 8 -10 20 -10 25 0 6 5 3 10 -5 5 -8 10 -19 10 -25z m60 -44 c0 -5 -7 -11 -14 -14 -10 -4 -13 -1 -9 9 6 15 23 19 23 5z m94 -56 c-4 -8 -11 -15 -16 -15 -6 0 -5 6 2 15 7 8 14 15 16 15 2 0 1 -7 -2 -15z m-50 -21 c3 -8 2 -12 -4 -9 -6 3 -10 10 -10 16 0 14 7 11 14 -7z"/>
<path d="M857 1023 c-4 -3 -7 -11 -7 -17 0 -6 5 -5 12 2 6 6 9 14 7 17 -3 3 -9 2 -12 -2z"/>
</g>
<title>Title</title></svg>
